<mxfile host="app.diagrams.net" modified="2024-04-08T15:05:11.444Z" agent="Mozilla/5.0 (X11; Linux x86_64) AppleWebKit/537.36 (KHTML, like Gecko) Chrome/122.0.0.0 Safari/537.36" etag="Z3vWKEnM0zmAO1ECOW6f" version="24.2.2" type="device">
  <diagram name="Pagina-1" id="OT11eEucH4q4IL_Ke3Lg">
    <mxGraphModel dx="2189" dy="1936" grid="1" gridSize="10" guides="1" tooltips="1" connect="1" arrows="1" fold="1" page="1" pageScale="1" pageWidth="827" pageHeight="1169" math="0" shadow="0">
      <root>
        <mxCell id="0" />
        <mxCell id="1" parent="0" />
        <mxCell id="ZuUraiOlEZ3Kf3tcpLx--2" value="&lt;font style=&quot;font-size: 16px;&quot;&gt;v&lt;sub&gt;p&lt;/sub&gt;&lt;/font&gt;" style="ellipse;whiteSpace=wrap;html=1;aspect=fixed;" parent="1" vertex="1">
          <mxGeometry x="26" y="-690" width="50" height="50" as="geometry" />
        </mxCell>
        <mxCell id="ZuUraiOlEZ3Kf3tcpLx--3" value="&lt;font style=&quot;font-size: 16px;&quot;&gt;v&lt;sub&gt;p&lt;/sub&gt;&lt;/font&gt;" style="ellipse;whiteSpace=wrap;html=1;aspect=fixed;" parent="1" vertex="1">
          <mxGeometry x="262" y="-690" width="50" height="50" as="geometry" />
        </mxCell>
        <mxCell id="ZuUraiOlEZ3Kf3tcpLx--4" value="&lt;span style=&quot;font-family: Söhne, ui-sans-serif, system-ui, -apple-system, &amp;quot;Segoe UI&amp;quot;, Roboto, Ubuntu, Cantarell, &amp;quot;Noto Sans&amp;quot;, sans-serif, &amp;quot;Helvetica Neue&amp;quot;, Arial, &amp;quot;Apple Color Emoji&amp;quot;, &amp;quot;Segoe UI Emoji&amp;quot;, &amp;quot;Segoe UI Symbol&amp;quot;, &amp;quot;Noto Color Emoji&amp;quot;; font-size: 16px; text-align: start; white-space-collapse: preserve;&quot;&gt;α&lt;sub&gt;1&lt;/sub&gt;&lt;/span&gt;" style="rounded=0;whiteSpace=wrap;html=1;" parent="1" vertex="1">
          <mxGeometry x="-19" y="-600" width="35" height="30" as="geometry" />
        </mxCell>
        <mxCell id="ZuUraiOlEZ3Kf3tcpLx--5" value="" style="rounded=0;whiteSpace=wrap;html=1;" parent="1" vertex="1">
          <mxGeometry x="16" y="-600" width="35" height="30" as="geometry" />
        </mxCell>
        <mxCell id="ZuUraiOlEZ3Kf3tcpLx--6" value="&lt;span style=&quot;font-family: Söhne, ui-sans-serif, system-ui, -apple-system, &amp;quot;Segoe UI&amp;quot;, Roboto, Ubuntu, Cantarell, &amp;quot;Noto Sans&amp;quot;, sans-serif, &amp;quot;Helvetica Neue&amp;quot;, Arial, &amp;quot;Apple Color Emoji&amp;quot;, &amp;quot;Segoe UI Emoji&amp;quot;, &amp;quot;Segoe UI Symbol&amp;quot;, &amp;quot;Noto Color Emoji&amp;quot;; font-size: 16px; text-align: start; white-space-collapse: preserve;&quot;&gt;α&lt;sub&gt;2&lt;/sub&gt;&lt;/span&gt;" style="rounded=0;whiteSpace=wrap;html=1;" parent="1" vertex="1">
          <mxGeometry x="66" y="-600" width="35" height="30" as="geometry" />
        </mxCell>
        <mxCell id="ZuUraiOlEZ3Kf3tcpLx--7" value="" style="rounded=0;whiteSpace=wrap;html=1;" parent="1" vertex="1">
          <mxGeometry x="101" y="-600" width="35" height="30" as="geometry" />
        </mxCell>
        <mxCell id="ZuUraiOlEZ3Kf3tcpLx--8" value="&lt;span style=&quot;font-family: Söhne, ui-sans-serif, system-ui, -apple-system, &amp;quot;Segoe UI&amp;quot;, Roboto, Ubuntu, Cantarell, &amp;quot;Noto Sans&amp;quot;, sans-serif, &amp;quot;Helvetica Neue&amp;quot;, Arial, &amp;quot;Apple Color Emoji&amp;quot;, &amp;quot;Segoe UI Emoji&amp;quot;, &amp;quot;Segoe UI Symbol&amp;quot;, &amp;quot;Noto Color Emoji&amp;quot;; font-size: 16px; text-align: start; white-space-collapse: preserve;&quot;&gt;α&lt;sub&gt;2&lt;/sub&gt;&lt;/span&gt;" style="rounded=0;whiteSpace=wrap;html=1;" parent="1" vertex="1">
          <mxGeometry x="166" y="-600" width="35" height="30" as="geometry" />
        </mxCell>
        <mxCell id="ZuUraiOlEZ3Kf3tcpLx--9" value="" style="rounded=0;whiteSpace=wrap;html=1;" parent="1" vertex="1">
          <mxGeometry x="201" y="-600" width="35" height="30" as="geometry" />
        </mxCell>
        <mxCell id="ZuUraiOlEZ3Kf3tcpLx--10" value="&lt;span style=&quot;font-family: Söhne, ui-sans-serif, system-ui, -apple-system, &amp;quot;Segoe UI&amp;quot;, Roboto, Ubuntu, Cantarell, &amp;quot;Noto Sans&amp;quot;, sans-serif, &amp;quot;Helvetica Neue&amp;quot;, Arial, &amp;quot;Apple Color Emoji&amp;quot;, &amp;quot;Segoe UI Emoji&amp;quot;, &amp;quot;Segoe UI Symbol&amp;quot;, &amp;quot;Noto Color Emoji&amp;quot;; font-size: 16px; text-align: start; white-space-collapse: preserve;&quot;&gt;α&lt;sub&gt;3&lt;/sub&gt;&lt;/span&gt;" style="rounded=0;whiteSpace=wrap;html=1;" parent="1" vertex="1">
          <mxGeometry x="256" y="-600" width="35" height="30" as="geometry" />
        </mxCell>
        <mxCell id="ZuUraiOlEZ3Kf3tcpLx--11" value="" style="rounded=0;whiteSpace=wrap;html=1;" parent="1" vertex="1">
          <mxGeometry x="291" y="-600" width="35" height="30" as="geometry" />
        </mxCell>
        <mxCell id="ZuUraiOlEZ3Kf3tcpLx--13" value="" style="endArrow=classic;html=1;rounded=0;entryX=0.5;entryY=0;entryDx=0;entryDy=0;dashed=1;" parent="1" target="ZuUraiOlEZ3Kf3tcpLx--3" edge="1">
          <mxGeometry width="50" height="50" relative="1" as="geometry">
            <mxPoint x="266" y="-730" as="sourcePoint" />
            <mxPoint x="122" y="-760" as="targetPoint" />
          </mxGeometry>
        </mxCell>
        <mxCell id="ZuUraiOlEZ3Kf3tcpLx--14" value="" style="endArrow=classic;html=1;rounded=0;entryX=0.5;entryY=0;entryDx=0;entryDy=0;dashed=1;" parent="1" target="ZuUraiOlEZ3Kf3tcpLx--2" edge="1">
          <mxGeometry width="50" height="50" relative="1" as="geometry">
            <mxPoint x="51" y="-730" as="sourcePoint" />
            <mxPoint x="226" y="-760" as="targetPoint" />
          </mxGeometry>
        </mxCell>
        <mxCell id="ZuUraiOlEZ3Kf3tcpLx--15" value="" style="endArrow=classic;html=1;rounded=0;exitX=0.5;exitY=1;exitDx=0;exitDy=0;entryX=0;entryY=0;entryDx=0;entryDy=0;" parent="1" source="ZuUraiOlEZ3Kf3tcpLx--2" target="ZuUraiOlEZ3Kf3tcpLx--7" edge="1">
          <mxGeometry width="50" height="50" relative="1" as="geometry">
            <mxPoint x="61" y="-680" as="sourcePoint" />
            <mxPoint x="96" y="-750" as="targetPoint" />
          </mxGeometry>
        </mxCell>
        <mxCell id="ZuUraiOlEZ3Kf3tcpLx--16" value="" style="endArrow=classic;html=1;rounded=0;exitX=0.5;exitY=1;exitDx=0;exitDy=0;entryX=0;entryY=0;entryDx=0;entryDy=0;" parent="1" source="ZuUraiOlEZ3Kf3tcpLx--2" target="ZuUraiOlEZ3Kf3tcpLx--5" edge="1">
          <mxGeometry width="50" height="50" relative="1" as="geometry">
            <mxPoint x="61" y="-630" as="sourcePoint" />
            <mxPoint x="131" y="-590" as="targetPoint" />
          </mxGeometry>
        </mxCell>
        <mxCell id="ZuUraiOlEZ3Kf3tcpLx--17" value="&lt;span style=&quot;font-family: Söhne, ui-sans-serif, system-ui, -apple-system, &amp;quot;Segoe UI&amp;quot;, Roboto, Ubuntu, Cantarell, &amp;quot;Noto Sans&amp;quot;, sans-serif, &amp;quot;Helvetica Neue&amp;quot;, Arial, &amp;quot;Apple Color Emoji&amp;quot;, &amp;quot;Segoe UI Emoji&amp;quot;, &amp;quot;Segoe UI Symbol&amp;quot;, &amp;quot;Noto Color Emoji&amp;quot;; font-size: 16px; text-align: start; white-space-collapse: preserve;&quot;&gt;α&lt;sub&gt;4&lt;/sub&gt;&lt;/span&gt;" style="rounded=0;whiteSpace=wrap;html=1;" parent="1" vertex="1">
          <mxGeometry x="342" y="-600" width="35" height="30" as="geometry" />
        </mxCell>
        <mxCell id="ZuUraiOlEZ3Kf3tcpLx--18" value="" style="rounded=0;whiteSpace=wrap;html=1;" parent="1" vertex="1">
          <mxGeometry x="377" y="-600" width="35" height="30" as="geometry" />
        </mxCell>
        <mxCell id="ZuUraiOlEZ3Kf3tcpLx--19" value="" style="endArrow=classic;html=1;rounded=0;exitX=0.5;exitY=1;exitDx=0;exitDy=0;entryX=1;entryY=0;entryDx=0;entryDy=0;" parent="1" source="ZuUraiOlEZ3Kf3tcpLx--3" target="ZuUraiOlEZ3Kf3tcpLx--17" edge="1">
          <mxGeometry width="50" height="50" relative="1" as="geometry">
            <mxPoint x="51" y="-630" as="sourcePoint" />
            <mxPoint x="101" y="-590" as="targetPoint" />
          </mxGeometry>
        </mxCell>
        <mxCell id="ZuUraiOlEZ3Kf3tcpLx--20" value="" style="endArrow=classic;html=1;rounded=0;exitX=0.5;exitY=1;exitDx=0;exitDy=0;entryX=0;entryY=0;entryDx=0;entryDy=0;" parent="1" source="ZuUraiOlEZ3Kf3tcpLx--3" target="ZuUraiOlEZ3Kf3tcpLx--11" edge="1">
          <mxGeometry width="50" height="50" relative="1" as="geometry">
            <mxPoint x="251" y="-630" as="sourcePoint" />
            <mxPoint x="387" y="-590" as="targetPoint" />
          </mxGeometry>
        </mxCell>
        <mxCell id="ZuUraiOlEZ3Kf3tcpLx--21" value="" style="endArrow=classic;html=1;rounded=0;exitX=0.5;exitY=1;exitDx=0;exitDy=0;entryX=0;entryY=0;entryDx=0;entryDy=0;" parent="1" source="ZuUraiOlEZ3Kf3tcpLx--3" target="ZuUraiOlEZ3Kf3tcpLx--9" edge="1">
          <mxGeometry width="50" height="50" relative="1" as="geometry">
            <mxPoint x="251" y="-630" as="sourcePoint" />
            <mxPoint x="301" y="-590" as="targetPoint" />
          </mxGeometry>
        </mxCell>
        <mxCell id="ZuUraiOlEZ3Kf3tcpLx--22" value="&lt;div&gt;&lt;font style=&quot;font-size: 16px;&quot;&gt;v&lt;/font&gt;&lt;/div&gt;" style="ellipse;whiteSpace=wrap;html=1;aspect=fixed;" parent="1" vertex="1">
          <mxGeometry x="24.5" y="-520" width="50" height="50" as="geometry" />
        </mxCell>
        <mxCell id="ZuUraiOlEZ3Kf3tcpLx--23" value="&lt;div&gt;&lt;font style=&quot;font-size: 16px;&quot;&gt;v&lt;/font&gt;&lt;/div&gt;" style="ellipse;whiteSpace=wrap;html=1;aspect=fixed;" parent="1" vertex="1">
          <mxGeometry x="130" y="-520" width="50" height="50" as="geometry" />
        </mxCell>
        <mxCell id="ZuUraiOlEZ3Kf3tcpLx--24" value="&lt;div&gt;&lt;font style=&quot;font-size: 16px;&quot;&gt;v&lt;/font&gt;&lt;/div&gt;" style="ellipse;whiteSpace=wrap;html=1;aspect=fixed;" parent="1" vertex="1">
          <mxGeometry x="238" y="-520" width="50" height="50" as="geometry" />
        </mxCell>
        <mxCell id="ZuUraiOlEZ3Kf3tcpLx--25" value="&lt;div&gt;&lt;font style=&quot;font-size: 16px;&quot;&gt;v&lt;/font&gt;&lt;/div&gt;" style="ellipse;whiteSpace=wrap;html=1;aspect=fixed;" parent="1" vertex="1">
          <mxGeometry x="343" y="-520" width="50" height="50" as="geometry" />
        </mxCell>
        <mxCell id="ZuUraiOlEZ3Kf3tcpLx--27" value="" style="endArrow=classic;html=1;rounded=0;exitX=0.5;exitY=1;exitDx=0;exitDy=0;entryX=0.5;entryY=0;entryDx=0;entryDy=0;" parent="1" source="ZuUraiOlEZ3Kf3tcpLx--6" target="ZuUraiOlEZ3Kf3tcpLx--23" edge="1">
          <mxGeometry width="50" height="50" relative="1" as="geometry">
            <mxPoint x="115" y="-630" as="sourcePoint" />
            <mxPoint x="165" y="-590" as="targetPoint" />
          </mxGeometry>
        </mxCell>
        <mxCell id="ZuUraiOlEZ3Kf3tcpLx--28" value="" style="endArrow=classic;html=1;rounded=0;entryX=0.5;entryY=0;entryDx=0;entryDy=0;exitX=0.5;exitY=1;exitDx=0;exitDy=0;" parent="1" target="ZuUraiOlEZ3Kf3tcpLx--22" edge="1" source="ZuUraiOlEZ3Kf3tcpLx--4">
          <mxGeometry width="50" height="50" relative="1" as="geometry">
            <mxPoint x="50" y="-570" as="sourcePoint" />
            <mxPoint x="105" y="-500" as="targetPoint" />
          </mxGeometry>
        </mxCell>
        <mxCell id="ZuUraiOlEZ3Kf3tcpLx--29" value="" style="endArrow=classic;html=1;rounded=0;entryX=0.5;entryY=0;entryDx=0;entryDy=0;exitX=0.5;exitY=1;exitDx=0;exitDy=0;" parent="1" target="ZuUraiOlEZ3Kf3tcpLx--23" edge="1" source="ZuUraiOlEZ3Kf3tcpLx--8">
          <mxGeometry width="50" height="50" relative="1" as="geometry">
            <mxPoint x="242" y="-570" as="sourcePoint" />
            <mxPoint x="280" y="-500" as="targetPoint" />
          </mxGeometry>
        </mxCell>
        <mxCell id="ZuUraiOlEZ3Kf3tcpLx--30" value="" style="endArrow=classic;html=1;rounded=0;entryX=0.5;entryY=0;entryDx=0;entryDy=0;exitX=0.5;exitY=1;exitDx=0;exitDy=0;" parent="1" target="ZuUraiOlEZ3Kf3tcpLx--24" edge="1" source="ZuUraiOlEZ3Kf3tcpLx--10">
          <mxGeometry width="50" height="50" relative="1" as="geometry">
            <mxPoint x="340" y="-570" as="sourcePoint" />
            <mxPoint x="378" y="-500" as="targetPoint" />
          </mxGeometry>
        </mxCell>
        <mxCell id="ZuUraiOlEZ3Kf3tcpLx--31" value="" style="endArrow=classic;html=1;rounded=0;entryX=0.5;entryY=0;entryDx=0;entryDy=0;exitX=0.5;exitY=1;exitDx=0;exitDy=0;" parent="1" target="ZuUraiOlEZ3Kf3tcpLx--25" edge="1" source="ZuUraiOlEZ3Kf3tcpLx--17">
          <mxGeometry width="50" height="50" relative="1" as="geometry">
            <mxPoint x="420" y="-570" as="sourcePoint" />
            <mxPoint x="458" y="-500" as="targetPoint" />
          </mxGeometry>
        </mxCell>
        <mxCell id="ZuUraiOlEZ3Kf3tcpLx--32" value="&lt;font style=&quot;font-size: 16px;&quot;&gt;p&lt;sub&gt;1&lt;/sub&gt;&lt;/font&gt;" style="rounded=0;whiteSpace=wrap;html=1;" parent="1" vertex="1">
          <mxGeometry x="-25" y="-420" width="35" height="30" as="geometry" />
        </mxCell>
        <mxCell id="ZuUraiOlEZ3Kf3tcpLx--33" value="&lt;font style=&quot;font-size: 16px;&quot;&gt;s&lt;sub&gt;1&lt;/sub&gt;&lt;/font&gt;" style="rounded=0;whiteSpace=wrap;html=1;" parent="1" vertex="1">
          <mxGeometry x="10" y="-420" width="35" height="30" as="geometry" />
        </mxCell>
        <mxCell id="ZuUraiOlEZ3Kf3tcpLx--34" value="&lt;font style=&quot;font-size: 16px;&quot;&gt;p&lt;sub&gt;2&lt;/sub&gt;&lt;/font&gt;" style="rounded=0;whiteSpace=wrap;html=1;" parent="1" vertex="1">
          <mxGeometry x="60" y="-420" width="35" height="30" as="geometry" />
        </mxCell>
        <mxCell id="ZuUraiOlEZ3Kf3tcpLx--35" value="&lt;font style=&quot;font-size: 16px;&quot;&gt;s&lt;sub&gt;2&lt;/sub&gt;&lt;/font&gt;" style="rounded=0;whiteSpace=wrap;html=1;" parent="1" vertex="1">
          <mxGeometry x="95" y="-420" width="35" height="30" as="geometry" />
        </mxCell>
        <mxCell id="ZuUraiOlEZ3Kf3tcpLx--36" value="&lt;font style=&quot;font-size: 16px;&quot;&gt;p&lt;sub&gt;3&lt;/sub&gt;&lt;/font&gt;" style="rounded=0;whiteSpace=wrap;html=1;" parent="1" vertex="1">
          <mxGeometry x="155" y="-420" width="35" height="30" as="geometry" />
        </mxCell>
        <mxCell id="ZuUraiOlEZ3Kf3tcpLx--37" value="&lt;span style=&quot;font-size: 16px;&quot;&gt;s&lt;/span&gt;&lt;font style=&quot;font-size: 16px;&quot;&gt;&lt;sub&gt;3&lt;/sub&gt;&lt;/font&gt;" style="rounded=0;whiteSpace=wrap;html=1;" parent="1" vertex="1">
          <mxGeometry x="190" y="-420" width="35" height="30" as="geometry" />
        </mxCell>
        <mxCell id="ZuUraiOlEZ3Kf3tcpLx--38" value="" style="endArrow=classic;html=1;rounded=0;entryX=1;entryY=0;entryDx=0;entryDy=0;exitX=0.5;exitY=1;exitDx=0;exitDy=0;" parent="1" target="ZuUraiOlEZ3Kf3tcpLx--32" edge="1" source="ZuUraiOlEZ3Kf3tcpLx--22">
          <mxGeometry width="50" height="50" relative="1" as="geometry">
            <mxPoint x="86" y="-470" as="sourcePoint" />
            <mxPoint x="124" y="-400" as="targetPoint" />
          </mxGeometry>
        </mxCell>
        <mxCell id="ZuUraiOlEZ3Kf3tcpLx--39" value="" style="endArrow=classic;html=1;rounded=0;entryX=1;entryY=0;entryDx=0;entryDy=0;exitX=0.5;exitY=1;exitDx=0;exitDy=0;" parent="1" source="ZuUraiOlEZ3Kf3tcpLx--22" target="ZuUraiOlEZ3Kf3tcpLx--34" edge="1">
          <mxGeometry width="50" height="50" relative="1" as="geometry">
            <mxPoint x="96" y="-460" as="sourcePoint" />
            <mxPoint x="63" y="-410" as="targetPoint" />
          </mxGeometry>
        </mxCell>
        <mxCell id="ZuUraiOlEZ3Kf3tcpLx--40" value="" style="endArrow=classic;html=1;rounded=0;entryX=0;entryY=0;entryDx=0;entryDy=0;exitX=0.5;exitY=1;exitDx=0;exitDy=0;" parent="1" source="ZuUraiOlEZ3Kf3tcpLx--23" target="ZuUraiOlEZ3Kf3tcpLx--37" edge="1">
          <mxGeometry width="50" height="50" relative="1" as="geometry">
            <mxPoint x="180" y="-450" as="sourcePoint" />
            <mxPoint x="240" y="-420" as="targetPoint" />
          </mxGeometry>
        </mxCell>
        <mxCell id="ZuUraiOlEZ3Kf3tcpLx--42" value="" style="endArrow=classic;html=1;rounded=0;exitX=0.5;exitY=1;exitDx=0;exitDy=0;dashed=1;" parent="1" source="ZuUraiOlEZ3Kf3tcpLx--23" edge="1">
          <mxGeometry width="50" height="50" relative="1" as="geometry">
            <mxPoint x="315" y="-430" as="sourcePoint" />
            <mxPoint x="140" y="-440" as="targetPoint" />
          </mxGeometry>
        </mxCell>
        <mxCell id="ZuUraiOlEZ3Kf3tcpLx--43" value="" style="endArrow=classic;html=1;rounded=0;exitX=0.5;exitY=1;exitDx=0;exitDy=0;dashed=1;" parent="1" source="ZuUraiOlEZ3Kf3tcpLx--24" edge="1">
          <mxGeometry width="50" height="50" relative="1" as="geometry">
            <mxPoint x="262" y="-470" as="sourcePoint" />
            <mxPoint x="250" y="-440" as="targetPoint" />
          </mxGeometry>
        </mxCell>
        <mxCell id="ZuUraiOlEZ3Kf3tcpLx--44" value="" style="endArrow=classic;html=1;rounded=0;exitX=0.5;exitY=1;exitDx=0;exitDy=0;dashed=1;" parent="1" source="ZuUraiOlEZ3Kf3tcpLx--25" edge="1">
          <mxGeometry width="50" height="50" relative="1" as="geometry">
            <mxPoint x="397.5" y="-440" as="sourcePoint" />
            <mxPoint x="350" y="-440" as="targetPoint" />
          </mxGeometry>
        </mxCell>
        <mxCell id="ZuUraiOlEZ3Kf3tcpLx--46" value="" style="endArrow=classic;html=1;rounded=0;exitX=0.5;exitY=1;exitDx=0;exitDy=0;dashed=1;" parent="1" source="ZuUraiOlEZ3Kf3tcpLx--24" edge="1">
          <mxGeometry width="50" height="50" relative="1" as="geometry">
            <mxPoint x="235" y="-430" as="sourcePoint" />
            <mxPoint x="280" y="-440" as="targetPoint" />
          </mxGeometry>
        </mxCell>
        <mxCell id="ZuUraiOlEZ3Kf3tcpLx--47" value="" style="endArrow=classic;html=1;rounded=0;exitX=0.5;exitY=1;exitDx=0;exitDy=0;dashed=1;" parent="1" source="ZuUraiOlEZ3Kf3tcpLx--25" edge="1">
          <mxGeometry width="50" height="50" relative="1" as="geometry">
            <mxPoint x="405" y="-460" as="sourcePoint" />
            <mxPoint x="390" y="-440" as="targetPoint" />
          </mxGeometry>
        </mxCell>
        <mxCell id="ZuUraiOlEZ3Kf3tcpLx--48" value="" style="endArrow=classic;html=1;rounded=0;entryX=0.5;entryY=0;entryDx=0;entryDy=0;dashed=1;" parent="1" target="ZuUraiOlEZ3Kf3tcpLx--3" edge="1">
          <mxGeometry width="50" height="50" relative="1" as="geometry">
            <mxPoint x="306" y="-730" as="sourcePoint" />
            <mxPoint x="297" y="-680" as="targetPoint" />
          </mxGeometry>
        </mxCell>
        <mxCell id="ZuUraiOlEZ3Kf3tcpLx--49" value="" style="endArrow=classic;html=1;rounded=0;entryX=0.5;entryY=0;entryDx=0;entryDy=0;" parent="1" target="ZuUraiOlEZ3Kf3tcpLx--50" edge="1">
          <mxGeometry width="50" height="50" relative="1" as="geometry">
            <mxPoint x="-4" y="-390" as="sourcePoint" />
            <mxPoint x="-40" y="-340" as="targetPoint" />
          </mxGeometry>
        </mxCell>
        <mxCell id="ZuUraiOlEZ3Kf3tcpLx--50" value="&lt;div&gt;&lt;font style=&quot;font-size: 16px;&quot;&gt;v&lt;sub&gt;l&lt;/sub&gt;&lt;/font&gt;&lt;/div&gt;" style="ellipse;whiteSpace=wrap;html=1;aspect=fixed;" parent="1" vertex="1">
          <mxGeometry x="-80" y="-340" width="50" height="50" as="geometry" />
        </mxCell>
        <mxCell id="ZuUraiOlEZ3Kf3tcpLx--51" value="" style="endArrow=classic;html=1;rounded=0;entryX=0.5;entryY=0;entryDx=0;entryDy=0;exitX=0.5;exitY=1;exitDx=0;exitDy=0;" parent="1" source="ZuUraiOlEZ3Kf3tcpLx--34" target="ZuUraiOlEZ3Kf3tcpLx--52" edge="1">
          <mxGeometry width="50" height="50" relative="1" as="geometry">
            <mxPoint x="80" y="-390" as="sourcePoint" />
            <mxPoint x="44" y="-340" as="targetPoint" />
          </mxGeometry>
        </mxCell>
        <mxCell id="ZuUraiOlEZ3Kf3tcpLx--52" value="&lt;div&gt;&lt;font style=&quot;font-size: 16px;&quot;&gt;v&lt;sub&gt;l&lt;/sub&gt;&lt;/font&gt;&lt;/div&gt;" style="ellipse;whiteSpace=wrap;html=1;aspect=fixed;" parent="1" vertex="1">
          <mxGeometry x="52.5" y="-340" width="50" height="50" as="geometry" />
        </mxCell>
        <mxCell id="ZuUraiOlEZ3Kf3tcpLx--53" value="" style="endArrow=classic;html=1;rounded=0;entryX=0.5;entryY=0;entryDx=0;entryDy=0;exitX=0.5;exitY=1;exitDx=0;exitDy=0;" parent="1" source="ZuUraiOlEZ3Kf3tcpLx--36" target="ZuUraiOlEZ3Kf3tcpLx--54" edge="1">
          <mxGeometry width="50" height="50" relative="1" as="geometry">
            <mxPoint x="190" y="-340" as="sourcePoint" />
            <mxPoint x="134" y="-340" as="targetPoint" />
          </mxGeometry>
        </mxCell>
        <mxCell id="ZuUraiOlEZ3Kf3tcpLx--54" value="&lt;div&gt;&lt;font style=&quot;font-size: 16px;&quot;&gt;v&lt;sub&gt;l&lt;/sub&gt;&lt;/font&gt;&lt;/div&gt;" style="ellipse;whiteSpace=wrap;html=1;aspect=fixed;" parent="1" vertex="1">
          <mxGeometry x="182.5" y="-340" width="50" height="50" as="geometry" />
        </mxCell>
        <mxCell id="ZuUraiOlEZ3Kf3tcpLx--55" value="" style="endArrow=classic;html=1;rounded=0;entryX=0.5;entryY=0;entryDx=0;entryDy=0;exitX=0.5;exitY=1;exitDx=0;exitDy=0;" parent="1" source="ZuUraiOlEZ3Kf3tcpLx--33" target="ZuUraiOlEZ3Kf3tcpLx--56" edge="1">
          <mxGeometry width="50" height="50" relative="1" as="geometry">
            <mxPoint x="45" y="-340" as="sourcePoint" />
            <mxPoint x="9" y="-290" as="targetPoint" />
          </mxGeometry>
        </mxCell>
        <mxCell id="ZuUraiOlEZ3Kf3tcpLx--56" value="&lt;div&gt;&lt;font style=&quot;font-size: 16px;&quot;&gt;v&lt;sub&gt;r&lt;/sub&gt;&lt;/font&gt;&lt;/div&gt;" style="ellipse;whiteSpace=wrap;html=1;aspect=fixed;" parent="1" vertex="1">
          <mxGeometry x="-15" y="-340" width="50" height="50" as="geometry" />
        </mxCell>
        <mxCell id="ZuUraiOlEZ3Kf3tcpLx--57" value="" style="endArrow=classic;html=1;rounded=0;entryX=0.5;entryY=0;entryDx=0;entryDy=0;exitX=0.5;exitY=1;exitDx=0;exitDy=0;" parent="1" source="ZuUraiOlEZ3Kf3tcpLx--35" target="ZuUraiOlEZ3Kf3tcpLx--58" edge="1">
          <mxGeometry width="50" height="50" relative="1" as="geometry">
            <mxPoint x="155.5" y="-390" as="sourcePoint" />
            <mxPoint x="136.5" y="-290" as="targetPoint" />
          </mxGeometry>
        </mxCell>
        <mxCell id="ZuUraiOlEZ3Kf3tcpLx--58" value="&lt;div&gt;&lt;font style=&quot;font-size: 16px;&quot;&gt;v&lt;sub&gt;r&lt;/sub&gt;&lt;/font&gt;&lt;/div&gt;" style="ellipse;whiteSpace=wrap;html=1;aspect=fixed;" parent="1" vertex="1">
          <mxGeometry x="112.5" y="-340" width="50" height="50" as="geometry" />
        </mxCell>
        <mxCell id="ZuUraiOlEZ3Kf3tcpLx--59" value="" style="endArrow=classic;html=1;rounded=0;entryX=0.5;entryY=0;entryDx=0;entryDy=0;exitX=0.5;exitY=1;exitDx=0;exitDy=0;" parent="1" source="ZuUraiOlEZ3Kf3tcpLx--37" target="ZuUraiOlEZ3Kf3tcpLx--60" edge="1">
          <mxGeometry width="50" height="50" relative="1" as="geometry">
            <mxPoint x="300.5" y="-390" as="sourcePoint" />
            <mxPoint x="281.5" y="-290" as="targetPoint" />
          </mxGeometry>
        </mxCell>
        <mxCell id="ZuUraiOlEZ3Kf3tcpLx--60" value="&lt;div&gt;&lt;font style=&quot;font-size: 16px;&quot;&gt;v&lt;sub&gt;r&lt;/sub&gt;&lt;/font&gt;&lt;/div&gt;" style="ellipse;whiteSpace=wrap;html=1;aspect=fixed;" parent="1" vertex="1">
          <mxGeometry x="257.5" y="-340" width="50" height="50" as="geometry" />
        </mxCell>
      </root>
    </mxGraphModel>
  </diagram>
</mxfile>
